<svg fill="none" height="360" viewBox="0 0 360 360" width="360" xmlns="http://www.w3.org/2000/svg"><path d="m180 358.6c-33.134 0-63.467-7.933-91.0004-23.8-27.0667-16.333-48.7667-38.033-65.1-65.1-15.86666-27.533-23.7999906-57.633-23.7999906-90.3 0-33.133 7.9333306-63.233 23.7999906-90.2998 16.3333-27.0667 38.0333-48.5333 65.1-64.4 27.5334-16.33333 57.8664-24.500005 91.0004-24.500005 24.733 0 47.833 4.666665 69.3 14.000005 21.933 9.3333 41.066 22.1667 57.4 38.5 16.333 16.3333 29.166 35.4667 38.5 57.3998 9.333 21.467 14 44.567 14 69.3 0 32.667-8.167 62.767-24.5 90.3-15.867 27.067-37.334 48.767-64.4 65.1-27.067 15.867-57.167 23.8-90.3 23.8zm0-40.6c25.666 0 48.766-6.066 69.3-18.2 21-12.133 37.8-28.7 50.4-49.7s18.9-44.566 18.9-70.7c0-25.666-6.3-49-18.9-70-12.6-20.9998-29.4-37.5665-50.4-49.6998-20.534-12.6-43.634-18.9-69.3-18.9-26.134 0-49.7 6.3-70.7 18.9-21.0004 12.1333-37.8004 28.7-50.4004 49.6998-12.1333 21-18.2 44.334-18.2 70 0 25.667 6.0667 49 18.2 70 12.6 21 29.4 37.8 50.4004 50.4 21 12.134 44.566 18.2 70.7 18.2zm-68.6-44.8v-188.9998h76.3c19.6 0 35.7 5.3667 48.3 16.0998 12.6 10.267 18.9 25.2 18.9 44.8 0 12.6-2.8 23.567-8.4 32.9-5.134 8.867-13.067 15.867-23.8 21l44.1 74.2h-45.5l-37.8-66.5h-31.5v66.5zm40.6-102.9h35.7c7.933 0 14.233-2.333 18.9-7 4.666-5.133 7-11.2 7-18.2s-2.334-12.833-7-17.5c-4.667-4.666-10.967-7-18.9-7h-35.7z" fill="#005ecb"/></svg>
